# Blender v2.65 (sub 0) OBJ File: 'skybox.blend'
# www.blender.org
o Cube
v 5.000000 -5.000000 -5.000000
v 5.000000 -5.000000 5.000000
v -5.000000 -5.000000 4.999999
v -4.999998 -5.000000 -5.000002
v 5.000002 5.000000 -4.999997
v 4.999997 5.000000 5.000003
v -5.000002 5.000000 4.999998
v -5.000000 5.000000 -5.000000
vt 0.535054 0.697775
vt 0.630349 0.697775
vt 0.630349 0.793070
vt 0.669734 0.994240
vt 0.669733 0.669155
vt 0.994818 0.669155
vt 0.335284 0.669029
vt 0.662385 0.669029
vt 0.662385 0.996131
vt 0.003241 0.332953
vt 0.329681 0.332953
vt 0.329681 0.659393
vt 0.337251 0.333373
vt 0.664617 0.333373
vt 0.664616 0.660739
vt 0.328716 0.996066
vt 0.002522 0.996066
vt 0.002522 0.669871
vt 0.535054 0.793070
vt 0.994819 0.994240
vt 0.335284 0.996131
vt 0.003241 0.659393
vt 0.337251 0.660739
vt 0.328716 0.669871
vn -0.577349 0.577349 0.577349
vn 0.577349 0.577349 0.577349
vn 0.577349 0.577349 -0.577349
vn -0.577349 -0.577349 0.577349
vn -0.577349 -0.577349 -0.577349
vn 0.577349 -0.577349 -0.577349
vn -0.577349 0.577349 -0.577349
vn 0.577349 -0.577349 0.577349
s 1
f 1/1/1 4/2/2 3/3/3
f 5/4/4 6/5/5 7/6/6
f 1/7/1 2/8/7 6/9/5
f 2/10/7 3/11/3 7/12/6
f 3/13/3 4/14/2 8/15/8
f 5/16/4 8/17/8 4/18/2
f 2/19/7 1/1/1 3/3/3
f 8/20/8 5/4/4 7/6/6
f 5/21/4 1/7/1 6/9/5
f 6/22/5 2/10/7 7/12/6
f 7/23/6 3/13/3 8/15/8
f 1/24/1 5/16/4 4/18/2
