# Blender v2.65 (sub 0) OBJ File: 'shadow.blend'
# www.blender.org
o Circle
v 0.000000 0.000000 -0.500000
v -0.191342 0.000000 -0.461940
v -0.353553 0.000000 -0.353553
v -0.461940 0.000000 -0.191342
v -0.500000 0.000000 0.000000
v -0.461940 0.000000 0.191342
v -0.353553 0.000000 0.353553
v -0.191342 0.000000 0.461940
v -0.000000 0.000000 0.500000
v 0.191342 0.000000 0.461940
v 0.353553 0.000000 0.353554
v 0.461940 0.000000 0.191342
v 0.500000 0.000000 -0.000000
v 0.461940 0.000000 -0.191342
v 0.353553 0.000000 -0.353554
v 0.191341 0.000000 -0.461940
v 0.000000 0.000000 0.000000
vt 0.500000 0.500000
vt 0.280690 0.171779
vt 0.171780 0.280690
vt 0.112838 0.422988
vt 0.112838 0.577011
vt 0.171779 0.719310
vt 0.280690 0.828220
vt 0.422989 0.887162
vt 0.577011 0.887162
vt 0.719310 0.828220
vt 0.828221 0.719310
vt 0.887162 0.577011
vt 0.887162 0.422988
vt 0.828220 0.280690
vt 0.719310 0.171779
vt 0.577011 0.112838
vt 0.422989 0.112838
vn 0.000000 1.000000 0.000000
s 1
f 17/1/1 4/2/1 5/3/1
f 17/1/1 5/3/1 6/4/1
f 17/1/1 6/4/1 7/5/1
f 17/1/1 7/5/1 8/6/1
f 17/1/1 8/6/1 9/7/1
f 17/1/1 9/7/1 10/8/1
f 17/1/1 10/8/1 11/9/1
f 17/1/1 11/9/1 12/10/1
f 17/1/1 12/10/1 13/11/1
f 17/1/1 13/11/1 14/12/1
f 17/1/1 14/12/1 15/13/1
f 17/1/1 15/13/1 16/14/1
f 16/14/1 1/15/1 17/1/1
f 17/1/1 1/15/1 2/16/1
f 17/1/1 2/16/1 3/17/1
f 17/1/1 3/17/1 4/2/1
